<svg width="18" height="4" viewBox="0 0 18 4" fill="none" xmlns="http://www.w3.org/2000/svg">
    <path d="M4.00008 2C4.00008 2.92047 3.25389 3.66666 2.33341 3.66666C1.41294 3.66666 0.666748 2.92047 0.666748 2C0.666748 1.07952 1.41294 0.333328 2.33341 0.333328C3.25389 0.333328 4.00008 1.07952 4.00008 2Z" fill="#536471"/>
    <path d="M10.6667 2C10.6667 2.92047 9.92056 3.66666 9.00008 3.66666C8.07961 3.66666 7.33342 2.92047 7.33342 2C7.33342 1.07952 8.07961 0.333328 9.00008 0.333328C9.92056 0.333328 10.6667 1.07952 10.6667 2Z" fill="#536471"/>
    <path d="M15.6667 3.66666C16.5872 3.66666 17.3334 2.92047 17.3334 2C17.3334 1.07952 16.5872 0.333328 15.6667 0.333328C14.7463 0.333328 14.0001 1.07952 14.0001 2C14.0001 2.92047 14.7463 3.66666 15.6667 3.66666Z" fill="#536471"/>
</svg>
