<svg width="18" height="20" viewBox="0 0 18 20" fill="none" xmlns="http://www.w3.org/2000/svg">
<path fill-rule="evenodd" clip-rule="evenodd" d="M9.00052 6.66668C7.15957 6.66668 5.66719 8.15906 5.66719 10C5.66719 11.841 7.15957 13.3333 9.00052 13.3333C10.8415 13.3333 12.3339 11.841 12.3339 10C12.3339 8.15906 10.8415 6.66668 9.00052 6.66668ZM7.33385 10C7.33385 9.07954 8.08004 8.33334 9.00052 8.33334C9.92099 8.33334 10.6672 9.07954 10.6672 10C10.6672 10.9205 9.92099 11.6667 9.00052 11.6667C8.08004 11.6667 7.33385 10.9205 7.33385 10Z" fill="#536471"/>
<path fill-rule="evenodd" clip-rule="evenodd" d="M11.9412 2.95198C11.1493 -0.0757907 6.85086 -0.0757899 6.05898 2.95198C5.86543 3.69202 5.10456 4.13131 4.36689 3.92891C1.34883 3.10082 -0.800415 6.82341 1.42577 9.02308C1.96989 9.56072 1.96989 10.4393 1.42577 10.9769C-0.800414 13.1766 1.34882 16.8992 4.36689 16.0711C5.10456 15.8687 5.86543 16.308 6.05898 17.048C6.85086 20.0758 11.1493 20.0758 11.9412 17.048C12.1348 16.308 12.8956 15.8687 13.6333 16.0711C16.6514 16.8992 18.8006 13.1766 16.5744 10.9769C16.0303 10.4393 16.0303 9.56072 16.5744 9.02308C18.8006 6.82341 16.6514 3.10081 13.6333 3.92891C12.8956 4.13131 12.1348 3.69202 11.9412 2.95198ZM7.67141 3.3737C8.02916 2.00586 9.97105 2.00586 10.3288 3.3737C10.7572 5.01181 12.4415 5.9842 14.0743 5.53617C15.4378 5.16207 16.4087 6.8438 15.403 7.83753C14.1986 9.02763 14.1986 10.9724 15.403 12.1625C16.4087 13.1562 15.4378 14.838 14.0743 14.4639C12.4415 14.0158 10.7572 14.9882 10.3288 16.6263C9.97105 17.9942 8.02916 17.9942 7.67141 16.6263C7.24298 14.9882 5.55876 14.0158 3.92589 14.4639C2.56244 14.838 1.59149 13.1562 2.5972 12.1625C3.80163 10.9724 3.80163 9.02762 2.5972 7.83753C1.59149 6.8438 2.56244 5.16207 3.92589 5.53617C5.55876 5.9842 7.24298 5.01181 7.67141 3.3737Z" fill="#536471"/>
</svg>
